solid eezybotarm_base_1
facet normal 0.0 0.0 -1.0
  outer loop
    vertex 0.0 150.0 0.0
    vertex 7.999999999999999 75.0 0.0
    vertex 0.0 0.0 0.0
  endloop
endfacet
facet normal 0.0 0.0 -1.0
  outer loop
    vertex 7.999999999999999 75.0 0.0
    vertex 0.0 150.0 0.0
    vertex 8.068148347421863 75.51763809020504 0.0
  endloop
endfacet
facet normal 0.0 0.0 -1.0
  outer loop
    vertex 8.068148347421863 75.51763809020504 0.0
    vertex 0.0 150.0 0.0
    vertex 8.267949192431121 76.0 0.0
  endloop
endfacet
facet normal 0.0 0.0 -1.0
  outer loop
    vertex 8.267949192431121 76.0 0.0
    vertex 0.0 150.0 0.0
    vertex 8.585786437626902 76.41421356237309 0.0
  endloop
endfacet
facet normal 0.0 0.0 -1.0
  outer loop
    vertex 8.585786437626902 76.41421356237309 0.0
    vertex 0.0 150.0 0.0
    vertex 8.999999999999998 76.73205080756888 0.0
  endloop
endfacet
facet normal 0.0 0.0 -1.0
  outer loop
    vertex 8.999999999999998 76.73205080756888 0.0
    vertex 0.0 150.0 0.0
    vertex 9.482361909794957 76.93185165257813 0.0
  endloop
endfacet
facet normal 0.0 0.0 -1.0
  outer loop
    vertex 9.482361909794957 76.93185165257813 0.0
    vertex 0.0 150.0 0.0
    vertex 250.0 150.0 0.0
  endloop
endfacet
facet normal 0.0 0.0 -1.0
  outer loop
    vertex 9.482361909794957 76.93185165257813 0.0
    vertex 250.0 150.0 0.0
    vertex 9.999999999999998 77.0 0.0
  endloop
endfacet
facet normal 0.0 0.0 -1.0
  outer loop
    vertex 9.999999999999998 77.0 0.0
    vertex 250.0 150.0 0.0
    vertex 10.517638090205038 76.93185165257813 0.0
  endloop
endfacet
facet normal 0.0 0.0 -1.0
  outer loop
    vertex 10.517638090205038 76.93185165257813 0.0
    vertex 250.0 150.0 0.0
    vertex 10.999999999999996 76.73205080756888 0.0
  endloop
endfacet
facet normal 0.0 0.0 -1.0
  outer loop
    vertex 10.999999999999996 76.73205080756888 0.0
    vertex 250.0 150.0 0.0
    vertex 11.414213562373092 76.41421356237309 0.0
  endloop
endfacet
facet normal 0.0 0.0 -1.0
  outer loop
    vertex 11.414213562373092 76.41421356237309 0.0
    vertex 250.0 150.0 0.0
    vertex 11.732050807568875 76.0 0.0
  endloop
endfacet
facet normal 0.0 0.0 -1.0
  outer loop
    vertex 11.732050807568875 76.0 0.0
    vertex 250.0 150.0 0.0
    vertex 11.931851652578134 75.51763809020504 0.0
  endloop
endfacet
facet normal 0.0 0.0 -1.0
  outer loop
    vertex 11.931851652578134 75.51763809020504 0.0
    vertex 250.0 150.0 0.0
    vertex 11.999999999999998 75.0 0.0
  endloop
endfacet
facet normal 0.0 0.0 -1.0
  outer loop
    vertex 0.0 0.0 0.0
    vertex 9.482361909794957 73.06814834742187 0.0
    vertex 250.0 0.0 0.0
  endloop
endfacet
facet normal 0.0 0.0 -1.0
  outer loop
    vertex 9.482361909794957 73.06814834742187 0.0
    vertex 0.0 0.0 0.0
    vertex 8.999999999999998 73.26794919243112 0.0
  endloop
endfacet
facet normal 0.0 0.0 -1.0
  outer loop
    vertex 8.999999999999998 73.26794919243112 0.0
    vertex 0.0 0.0 0.0
    vertex 8.585786437626904 73.5857864376269 0.0
  endloop
endfacet
facet normal 0.0 0.0 -1.0
  outer loop
    vertex 8.585786437626904 73.5857864376269 0.0
    vertex 0.0 0.0 0.0
    vertex 8.267949192431123 74.0 0.0
  endloop
endfacet
facet normal 0.0 0.0 -1.0
  outer loop
    vertex 8.267949192431123 74.0 0.0
    vertex 0.0 0.0 0.0
    vertex 8.068148347421863 74.48236190979495 0.0
  endloop
endfacet
facet normal 0.0 0.0 -1.0
  outer loop
    vertex 8.068148347421863 74.48236190979495 0.0
    vertex 0.0 0.0 0.0
    vertex 7.999999999999999 75.0 0.0
  endloop
endfacet
facet normal 0.0 0.0 -1.0
  outer loop
    vertex 250.0 0.0 0.0
    vertex 9.482361909794957 73.06814834742187 0.0
    vertex 9.999999999999998 73.0 0.0
  endloop
endfacet
facet normal 0.0 0.0 -1.0
  outer loop
    vertex 250.0 0.0 0.0
    vertex 9.999999999999998 73.0 0.0
    vertex 10.51763809020504 73.06814834742187 0.0
  endloop
endfacet
facet normal 0.0 0.0 -1.0
  outer loop
    vertex 250.0 0.0 0.0
    vertex 10.51763809020504 73.06814834742187 0.0
    vertex 10.999999999999998 73.26794919243112 0.0
  endloop
endfacet
facet normal 0.0 0.0 -1.0
  outer loop
    vertex 250.0 0.0 0.0
    vertex 10.999999999999998 73.26794919243112 0.0
    vertex 11.414213562373092 73.5857864376269 0.0
  endloop
endfacet
facet normal 0.0 0.0 -1.0
  outer loop
    vertex 250.0 0.0 0.0
    vertex 11.414213562373092 73.5857864376269 0.0
    vertex 11.732050807568875 74.0 0.0
  endloop
endfacet
facet normal 0.0 0.0 -1.0
  outer loop
    vertex 250.0 0.0 0.0
    vertex 11.732050807568875 74.0 0.0
    vertex 11.931851652578134 74.48236190979495 0.0
  endloop
endfacet
facet normal 0.0 0.0 -1.0
  outer loop
    vertex 250.0 0.0 0.0
    vertex 11.931851652578134 74.48236190979495 0.0
    vertex 11.999999999999998 75.0 0.0
  endloop
endfacet
facet normal 0.0 0.0 -1.0
  outer loop
    vertex 250.0 0.0 0.0
    vertex 11.999999999999998 75.0 0.0
    vertex 250.0 150.0 0.0
  endloop
endfacet
facet normal 0.0 0.0 1.0
  outer loop
    vertex 0.0 0.0 4.999999999999999
    vertex 7.999999999999999 75.0 4.999999999999999
    vertex 0.0 150.0 4.999999999999999
  endloop
endfacet
facet normal 0.0 0.0 1.0
  outer loop
    vertex 7.999999999999999 75.0 4.999999999999999
    vertex 0.0 0.0 4.999999999999999
    vertex 8.068148347421863 74.48236190979495 4.999999999999999
  endloop
endfacet
facet normal 0.0 0.0 1.0
  outer loop
    vertex 8.068148347421863 74.48236190979495 4.999999999999999
    vertex 0.0 0.0 4.999999999999999
    vertex 8.267949192431123 74.0 4.999999999999999
  endloop
endfacet
facet normal 0.0 0.0 1.0
  outer loop
    vertex 8.267949192431123 74.0 4.999999999999999
    vertex 0.0 0.0 4.999999999999999
    vertex 8.585786437626904 73.5857864376269 4.999999999999999
  endloop
endfacet
facet normal 0.0 0.0 1.0
  outer loop
    vertex 8.585786437626904 73.5857864376269 4.999999999999999
    vertex 0.0 0.0 4.999999999999999
    vertex 8.999999999999998 73.26794919243112 4.999999999999999
  endloop
endfacet
facet normal 0.0 0.0 1.0
  outer loop
    vertex 8.999999999999998 73.26794919243112 4.999999999999999
    vertex 0.0 0.0 4.999999999999999
    vertex 9.482361909794957 73.06814834742187 4.999999999999999
  endloop
endfacet
facet normal 0.0 0.0 1.0
  outer loop
    vertex 9.482361909794957 73.06814834742187 4.999999999999999
    vertex 0.0 0.0 4.999999999999999
    vertex 250.0 0.0 4.999999999999999
  endloop
endfacet
facet normal 0.0 0.0 1.0
  outer loop
    vertex 9.482361909794957 73.06814834742187 4.999999999999999
    vertex 250.0 0.0 4.999999999999999
    vertex 9.999999999999998 73.0 4.999999999999999
  endloop
endfacet
facet normal 0.0 0.0 1.0
  outer loop
    vertex 9.999999999999998 73.0 4.999999999999999
    vertex 250.0 0.0 4.999999999999999
    vertex 10.51763809020504 73.06814834742187 4.999999999999999
  endloop
endfacet
facet normal 0.0 0.0 1.0
  outer loop
    vertex 10.51763809020504 73.06814834742187 4.999999999999999
    vertex 250.0 0.0 4.999999999999999
    vertex 10.999999999999998 73.26794919243112 4.999999999999999
  endloop
endfacet
facet normal 0.0 0.0 1.0
  outer loop
    vertex 10.999999999999998 73.26794919243112 4.999999999999999
    vertex 250.0 0.0 4.999999999999999
    vertex 11.414213562373092 73.5857864376269 4.999999999999999
  endloop
endfacet
facet normal 0.0 0.0 1.0
  outer loop
    vertex 11.414213562373092 73.5857864376269 4.999999999999999
    vertex 250.0 0.0 4.999999999999999
    vertex 11.732050807568875 74.0 4.999999999999999
  endloop
endfacet
facet normal 0.0 0.0 1.0
  outer loop
    vertex 11.732050807568875 74.0 4.999999999999999
    vertex 250.0 0.0 4.999999999999999
    vertex 11.931851652578134 74.48236190979495 4.999999999999999
  endloop
endfacet
facet normal 0.0 0.0 1.0
  outer loop
    vertex 11.931851652578134 74.48236190979495 4.999999999999999
    vertex 250.0 0.0 4.999999999999999
    vertex 11.999999999999998 75.0 4.999999999999999
  endloop
endfacet
facet normal 0.0 0.0 1.0
  outer loop
    vertex 0.0 150.0 4.999999999999999
    vertex 9.482361909794957 76.93185165257813 4.999999999999999
    vertex 250.0 150.0 4.999999999999999
  endloop
endfacet
facet normal 0.0 0.0 1.0
  outer loop
    vertex 9.482361909794957 76.93185165257813 4.999999999999999
    vertex 0.0 150.0 4.999999999999999
    vertex 8.999999999999998 76.73205080756888 4.999999999999999
  endloop
endfacet
facet normal 0.0 0.0 1.0
  outer loop
    vertex 8.999999999999998 76.73205080756888 4.999999999999999
    vertex 0.0 150.0 4.999999999999999
    vertex 8.585786437626902 76.41421356237309 4.999999999999999
  endloop
endfacet
facet normal 0.0 0.0 1.0
  outer loop
    vertex 8.585786437626902 76.41421356237309 4.999999999999999
    vertex 0.0 150.0 4.999999999999999
    vertex 8.267949192431121 76.0 4.999999999999999
  endloop
endfacet
facet normal 0.0 0.0 1.0
  outer loop
    vertex 8.267949192431121 76.0 4.999999999999999
    vertex 0.0 150.0 4.999999999999999
    vertex 8.068148347421863 75.51763809020504 4.999999999999999
  endloop
endfacet
facet normal 0.0 0.0 1.0
  outer loop
    vertex 8.068148347421863 75.51763809020504 4.999999999999999
    vertex 0.0 150.0 4.999999999999999
    vertex 7.999999999999999 75.0 4.999999999999999
  endloop
endfacet
facet normal 0.0 0.0 1.0
  outer loop
    vertex 250.0 150.0 4.999999999999999
    vertex 9.482361909794957 76.93185165257813 4.999999999999999
    vertex 9.999999999999998 77.0 4.999999999999999
  endloop
endfacet
facet normal 0.0 0.0 1.0
  outer loop
    vertex 250.0 150.0 4.999999999999999
    vertex 9.999999999999998 77.0 4.999999999999999
    vertex 10.517638090205038 76.93185165257813 4.999999999999999
  endloop
endfacet
facet normal 0.0 0.0 1.0
  outer loop
    vertex 250.0 150.0 4.999999999999999
    vertex 10.517638090205038 76.93185165257813 4.999999999999999
    vertex 10.999999999999996 76.73205080756888 4.999999999999999
  endloop
endfacet
facet normal 0.0 0.0 1.0
  outer loop
    vertex 250.0 150.0 4.999999999999999
    vertex 10.999999999999996 76.73205080756888 4.999999999999999
    vertex 11.414213562373092 76.41421356237309 4.999999999999999
  endloop
endfacet
facet normal 0.0 0.0 1.0
  outer loop
    vertex 250.0 150.0 4.999999999999999
    vertex 11.414213562373092 76.41421356237309 4.999999999999999
    vertex 11.732050807568875 76.0 4.999999999999999
  endloop
endfacet
facet normal 0.0 0.0 1.0
  outer loop
    vertex 250.0 150.0 4.999999999999999
    vertex 11.732050807568875 76.0 4.999999999999999
    vertex 11.931851652578134 75.51763809020504 4.999999999999999
  endloop
endfacet
facet normal 0.0 0.0 1.0
  outer loop
    vertex 250.0 150.0 4.999999999999999
    vertex 11.931851652578134 75.51763809020504 4.999999999999999
    vertex 11.999999999999998 75.0 4.999999999999999
  endloop
endfacet
facet normal 0.0 0.0 1.0
  outer loop
    vertex 250.0 150.0 4.999999999999999
    vertex 11.999999999999998 75.0 4.999999999999999
    vertex 250.0 0.0 4.999999999999999
  endloop
endfacet
facet normal -1.0 0.0 0.0
  outer loop
    vertex 0.0 150.0 4.999999999999999
    vertex 0.0 0.0 0.0
    vertex 0.0 0.0 4.999999999999999
  endloop
endfacet
facet normal -1.0 0.0 0.0
  outer loop
    vertex 0.0 0.0 0.0
    vertex 0.0 150.0 4.999999999999999
    vertex 0.0 150.0 0.0
  endloop
endfacet
facet normal -0.0 1.0 0.0
  outer loop
    vertex 0.0 150.0 4.999999999999999
    vertex 250.0 150.0 0.0
    vertex 0.0 150.0 0.0
  endloop
endfacet
facet normal -0.0 1.0 0.0
  outer loop
    vertex 250.0 150.0 0.0
    vertex 0.0 150.0 4.999999999999999
    vertex 250.0 150.0 4.999999999999999
  endloop
endfacet
facet normal 1.0 0.0 0.0
  outer loop
    vertex 250.0 150.0 0.0
    vertex 250.0 0.0 4.999999999999999
    vertex 250.0 0.0 0.0
  endloop
endfacet
facet normal 1.0 0.0 0.0
  outer loop
    vertex 250.0 0.0 4.999999999999999
    vertex 250.0 150.0 0.0
    vertex 250.0 150.0 4.999999999999999
  endloop
endfacet
facet normal -0.0 -1.0 -0.0
  outer loop
    vertex 250.0 0.0 4.999999999999999
    vertex 0.0 0.0 0.0
    vertex 250.0 0.0 0.0
  endloop
endfacet
facet normal -0.0 -1.0 -0.0
  outer loop
    vertex 0.0 0.0 0.0
    vertex 250.0 0.0 4.999999999999999
    vertex 0.0 0.0 4.999999999999999
  endloop
endfacet
facet normal 0.9914448613738106 -0.13052619222005077 -0.0
  outer loop
    vertex 8.068148347421863 75.51763809020504 0.0
    vertex 7.999999999999999 75.0 4.999999999999999
    vertex 7.999999999999999 75.0 0.0
  endloop
endfacet
facet normal 0.9914448613738106 -0.13052619222005077 -0.0
  outer loop
    vertex 7.999999999999999 75.0 4.999999999999999
    vertex 8.068148347421863 75.51763809020504 0.0
    vertex 8.068148347421863 75.51763809020504 4.999999999999999
  endloop
endfacet
facet normal 0.9914448613738106 0.13052619222005077 0.0
  outer loop
    vertex 7.999999999999999 75.0 0.0
    vertex 8.068148347421863 74.48236190979495 4.999999999999999
    vertex 8.068148347421863 74.48236190979495 0.0
  endloop
endfacet
facet normal 0.9914448613738106 0.13052619222005077 0.0
  outer loop
    vertex 8.068148347421863 74.48236190979495 4.999999999999999
    vertex 7.999999999999999 75.0 0.0
    vertex 7.999999999999999 75.0 4.999999999999999
  endloop
endfacet
facet normal 0.9238795325112845 0.3826834323650951 0.0
  outer loop
    vertex 8.068148347421863 74.48236190979495 0.0
    vertex 8.267949192431123 74.0 4.999999999999999
    vertex 8.267949192431123 74.0 0.0
  endloop
endfacet
facet normal 0.9238795325112845 0.3826834323650951 0.0
  outer loop
    vertex 8.267949192431123 74.0 4.999999999999999
    vertex 8.068148347421863 74.48236190979495 0.0
    vertex 8.068148347421863 74.48236190979495 4.999999999999999
  endloop
endfacet
facet normal 0.7933533402912402 0.6087614290087144 0.0
  outer loop
    vertex 8.267949192431123 74.0 0.0
    vertex 8.585786437626904 73.5857864376269 4.999999999999999
    vertex 8.585786437626904 73.5857864376269 0.0
  endloop
endfacet
facet normal 0.7933533402912402 0.6087614290087144 0.0
  outer loop
    vertex 8.585786437626904 73.5857864376269 4.999999999999999
    vertex 8.267949192431123 74.0 0.0
    vertex 8.267949192431123 74.0 4.999999999999999
  endloop
endfacet
facet normal 0.6087614290087179 0.7933533402912372 0.0
  outer loop
    vertex 8.585786437626904 73.5857864376269 4.999999999999999
    vertex 8.999999999999998 73.26794919243112 0.0
    vertex 8.585786437626904 73.5857864376269 0.0
  endloop
endfacet
facet normal 0.6087614290087179 0.7933533402912372 0.0
  outer loop
    vertex 8.999999999999998 73.26794919243112 0.0
    vertex 8.585786437626904 73.5857864376269 4.999999999999999
    vertex 8.999999999999998 73.26794919243112 4.999999999999999
  endloop
endfacet
facet normal 0.38268343236508207 0.92387953251129 0.0
  outer loop
    vertex 8.999999999999998 73.26794919243112 4.999999999999999
    vertex 9.482361909794957 73.06814834742187 0.0
    vertex 8.999999999999998 73.26794919243112 0.0
  endloop
endfacet
facet normal 0.38268343236508207 0.92387953251129 0.0
  outer loop
    vertex 9.482361909794957 73.06814834742187 0.0
    vertex 8.999999999999998 73.26794919243112 4.999999999999999
    vertex 9.482361909794957 73.06814834742187 4.999999999999999
  endloop
endfacet
facet normal 0.1305261922200518 0.9914448613738104 0.0
  outer loop
    vertex 9.482361909794957 73.06814834742187 4.999999999999999
    vertex 9.999999999999998 73.0 0.0
    vertex 9.482361909794957 73.06814834742187 0.0
  endloop
endfacet
facet normal 0.1305261922200518 0.9914448613738104 0.0
  outer loop
    vertex 9.999999999999998 73.0 0.0
    vertex 9.482361909794957 73.06814834742187 4.999999999999999
    vertex 9.999999999999998 73.0 4.999999999999999
  endloop
endfacet
facet normal -0.1305261922200518 0.9914448613738104 -0.0
  outer loop
    vertex 9.999999999999998 73.0 4.999999999999999
    vertex 10.51763809020504 73.06814834742187 0.0
    vertex 9.999999999999998 73.0 0.0
  endloop
endfacet
facet normal -0.1305261922200518 0.9914448613738104 -0.0
  outer loop
    vertex 10.51763809020504 73.06814834742187 0.0
    vertex 9.999999999999998 73.0 4.999999999999999
    vertex 10.51763809020504 73.06814834742187 4.999999999999999
  endloop
endfacet
facet normal -0.38268343236508207 0.92387953251129 -0.0
  outer loop
    vertex 10.51763809020504 73.06814834742187 4.999999999999999
    vertex 10.999999999999998 73.26794919243112 0.0
    vertex 10.51763809020504 73.06814834742187 0.0
  endloop
endfacet
facet normal -0.38268343236508207 0.92387953251129 -0.0
  outer loop
    vertex 10.999999999999998 73.26794919243112 0.0
    vertex 10.51763809020504 73.06814834742187 4.999999999999999
    vertex 10.999999999999998 73.26794919243112 4.999999999999999
  endloop
endfacet
facet normal -0.6087614290087179 0.7933533402912372 -0.0
  outer loop
    vertex 10.999999999999998 73.26794919243112 4.999999999999999
    vertex 11.414213562373092 73.5857864376269 0.0
    vertex 10.999999999999998 73.26794919243112 0.0
  endloop
endfacet
facet normal -0.6087614290087179 0.7933533402912372 -0.0
  outer loop
    vertex 11.414213562373092 73.5857864376269 0.0
    vertex 10.999999999999998 73.26794919243112 4.999999999999999
    vertex 11.414213562373092 73.5857864376269 4.999999999999999
  endloop
endfacet
facet normal -0.7933533402912388 0.6087614290087162 -0.0
  outer loop
    vertex 11.732050807568875 74.0 4.999999999999999
    vertex 11.414213562373092 73.5857864376269 0.0
    vertex 11.414213562373092 73.5857864376269 4.999999999999999
  endloop
endfacet
facet normal -0.7933533402912388 0.6087614290087162 -0.0
  outer loop
    vertex 11.414213562373092 73.5857864376269 0.0
    vertex 11.732050807568875 74.0 4.999999999999999
    vertex 11.732050807568875 74.0 0.0
  endloop
endfacet
facet normal -0.9238795325112855 0.38268343236509283 -0.0
  outer loop
    vertex 11.931851652578134 74.48236190979495 4.999999999999999
    vertex 11.732050807568875 74.0 0.0
    vertex 11.732050807568875 74.0 4.999999999999999
  endloop
endfacet
facet normal -0.9238795325112855 0.38268343236509283 -0.0
  outer loop
    vertex 11.732050807568875 74.0 0.0
    vertex 11.931851652578134 74.48236190979495 4.999999999999999
    vertex 11.931851652578134 74.48236190979495 0.0
  endloop
endfacet
facet normal -0.9914448613738106 0.13052619222005077 -0.0
  outer loop
    vertex 11.999999999999998 75.0 4.999999999999999
    vertex 11.931851652578134 74.48236190979495 0.0
    vertex 11.931851652578134 74.48236190979495 4.999999999999999
  endloop
endfacet
facet normal -0.9914448613738106 0.13052619222005077 -0.0
  outer loop
    vertex 11.931851652578134 74.48236190979495 0.0
    vertex 11.999999999999998 75.0 4.999999999999999
    vertex 11.999999999999998 75.0 0.0
  endloop
endfacet
facet normal -0.9914448613738106 -0.13052619222005077 -0.0
  outer loop
    vertex 11.931851652578134 75.51763809020504 4.999999999999999
    vertex 11.999999999999998 75.0 0.0
    vertex 11.999999999999998 75.0 4.999999999999999
  endloop
endfacet
facet normal -0.9914448613738106 -0.13052619222005077 -0.0
  outer loop
    vertex 11.999999999999998 75.0 0.0
    vertex 11.931851652578134 75.51763809020504 4.999999999999999
    vertex 11.931851652578134 75.51763809020504 0.0
  endloop
endfacet
facet normal -0.9238795325112845 -0.3826834323650951 -0.0
  outer loop
    vertex 11.732050807568875 76.0 4.999999999999999
    vertex 11.931851652578134 75.51763809020504 0.0
    vertex 11.931851652578134 75.51763809020504 4.999999999999999
  endloop
endfacet
facet normal -0.9238795325112845 -0.3826834323650951 -0.0
  outer loop
    vertex 11.931851652578134 75.51763809020504 0.0
    vertex 11.732050807568875 76.0 4.999999999999999
    vertex 11.732050807568875 76.0 0.0
  endloop
endfacet
facet normal -0.7933533402912402 -0.6087614290087144 -0.0
  outer loop
    vertex 11.414213562373092 76.41421356237309 4.999999999999999
    vertex 11.732050807568875 76.0 0.0
    vertex 11.732050807568875 76.0 4.999999999999999
  endloop
endfacet
facet normal -0.7933533402912402 -0.6087614290087144 -0.0
  outer loop
    vertex 11.732050807568875 76.0 0.0
    vertex 11.414213562373092 76.41421356237309 4.999999999999999
    vertex 11.414213562373092 76.41421356237309 0.0
  endloop
endfacet
facet normal -0.6087614290087167 -0.7933533402912383 -0.0
  outer loop
    vertex 11.414213562373092 76.41421356237309 4.999999999999999
    vertex 10.999999999999996 76.73205080756888 0.0
    vertex 11.414213562373092 76.41421356237309 0.0
  endloop
endfacet
facet normal -0.6087614290087167 -0.7933533402912383 -0.0
  outer loop
    vertex 10.999999999999996 76.73205080756888 0.0
    vertex 11.414213562373092 76.41421356237309 4.999999999999999
    vertex 10.999999999999996 76.73205080756888 4.999999999999999
  endloop
endfacet
facet normal -0.38268343236508207 -0.92387953251129 -0.0
  outer loop
    vertex 10.999999999999996 76.73205080756888 4.999999999999999
    vertex 10.517638090205038 76.93185165257813 0.0
    vertex 10.999999999999996 76.73205080756888 0.0
  endloop
endfacet
facet normal -0.38268343236508207 -0.92387953251129 -0.0
  outer loop
    vertex 10.517638090205038 76.93185165257813 0.0
    vertex 10.999999999999996 76.73205080756888 4.999999999999999
    vertex 10.517638090205038 76.93185165257813 4.999999999999999
  endloop
endfacet
facet normal -0.13052619222005216 -0.9914448613738104 -0.0
  outer loop
    vertex 10.517638090205038 76.93185165257813 4.999999999999999
    vertex 9.999999999999998 77.0 0.0
    vertex 10.517638090205038 76.93185165257813 0.0
  endloop
endfacet
facet normal -0.13052619222005216 -0.9914448613738104 -0.0
  outer loop
    vertex 9.999999999999998 77.0 0.0
    vertex 10.517638090205038 76.93185165257813 4.999999999999999
    vertex 9.999999999999998 77.0 4.999999999999999
  endloop
endfacet
facet normal 0.13052619222005143 -0.9914448613738105 -0.0
  outer loop
    vertex 9.999999999999998 77.0 4.999999999999999
    vertex 9.482361909794957 76.93185165257813 0.0
    vertex 9.999999999999998 77.0 0.0
  endloop
endfacet
facet normal 0.13052619222005143 -0.9914448613738105 -0.0
  outer loop
    vertex 9.482361909794957 76.93185165257813 0.0
    vertex 9.999999999999998 77.0 4.999999999999999
    vertex 9.482361909794957 76.93185165257813 4.999999999999999
  endloop
endfacet
facet normal 0.38268343236508207 -0.92387953251129 -0.0
  outer loop
    vertex 9.482361909794957 76.93185165257813 4.999999999999999
    vertex 8.999999999999998 76.73205080756888 0.0
    vertex 9.482361909794957 76.93185165257813 0.0
  endloop
endfacet
facet normal 0.38268343236508207 -0.92387953251129 -0.0
  outer loop
    vertex 8.999999999999998 76.73205080756888 0.0
    vertex 9.482361909794957 76.93185165257813 4.999999999999999
    vertex 8.999999999999998 76.73205080756888 4.999999999999999
  endloop
endfacet
facet normal 0.6087614290087179 -0.7933533402912372 -0.0
  outer loop
    vertex 8.999999999999998 76.73205080756888 4.999999999999999
    vertex 8.585786437626902 76.41421356237309 0.0
    vertex 8.999999999999998 76.73205080756888 0.0
  endloop
endfacet
facet normal 0.6087614290087179 -0.7933533402912372 -0.0
  outer loop
    vertex 8.585786437626902 76.41421356237309 0.0
    vertex 8.999999999999998 76.73205080756888 4.999999999999999
    vertex 8.585786437626902 76.41421356237309 4.999999999999999
  endloop
endfacet
facet normal 0.7933533402912402 -0.6087614290087144 -0.0
  outer loop
    vertex 8.585786437626902 76.41421356237309 0.0
    vertex 8.267949192431121 76.0 4.999999999999999
    vertex 8.267949192431121 76.0 0.0
  endloop
endfacet
facet normal 0.7933533402912402 -0.6087614290087144 -0.0
  outer loop
    vertex 8.267949192431121 76.0 4.999999999999999
    vertex 8.585786437626902 76.41421356237309 0.0
    vertex 8.585786437626902 76.41421356237309 4.999999999999999
  endloop
endfacet
facet normal 0.9238795325112855 -0.38268343236509283 -0.0
  outer loop
    vertex 8.267949192431121 76.0 0.0
    vertex 8.068148347421863 75.51763809020504 4.999999999999999
    vertex 8.068148347421863 75.51763809020504 0.0
  endloop
endfacet
facet normal 0.9238795325112855 -0.38268343236509283 -0.0
  outer loop
    vertex 8.068148347421863 75.51763809020504 4.999999999999999
    vertex 8.267949192431121 76.0 0.0
    vertex 8.267949192431121 76.0 4.999999999999999
  endloop
endfacet
endsolid eezybotarm_base_1
